<svg xmlns="http://www.w3.org/2000/svg" width="27" height="19" viewBox="0 0 27 19">
    <g fill="none" fill-rule="evenodd" opacity=".56">
        <path fill="#FFF" d="M26.203 3.166A3.242 3.242 0 0 0 23.928.845C21.91.357 13.844.357 13.844.357s-8.067 0-10.083.534a3.242 3.242 0 0 0-2.275 2.322 33.331 33.331 0 0 0-.54 6.14 33.331 33.331 0 0 0 .54 6.186 3.244 3.244 0 0 0 2.275 2.229c2.016.534 10.083.534 10.083.534s8.067 0 10.084-.534a3.242 3.242 0 0 0 2.275-2.322c.366-2.01.546-4.05.539-6.093a33.331 33.331 0 0 0-.54-6.187z"/>
        <path fill="#000" d="M11.206 13.148l6.742-3.795-6.742-3.796z"/>
    </g>
</svg>
